<svg width="35" height="35" viewBox="0 0 35 35" fill="none" xmlns="http://www.w3.org/2000/svg">
<path d="M9.87073 0.5H24.1663C29.6122 0.5 34.037 4.92 34.037 10.36V24.64C34.037 27.255 32.997 29.763 31.1459 31.6121C29.2948 33.4612 26.7841 34.5 24.1663 34.5H9.87073C4.42481 34.5 0 30.08 0 24.64V10.36C0 7.74497 1.03995 5.23704 2.89107 3.38793C4.74219 1.53882 7.25285 0.5 9.87073 0.5ZM9.53036 3.9C7.90547 3.9 6.34713 4.54478 5.19815 5.69251C4.04918 6.84023 3.4037 8.39687 3.4037 10.02V24.98C3.4037 28.363 6.14368 31.1 9.53036 31.1H24.5066C26.1315 31.1 27.6899 30.4552 28.8388 29.3075C29.9878 28.1598 30.6333 26.6031 30.6333 24.98V10.02C30.6333 6.637 27.8933 3.9 24.5066 3.9H9.53036ZM25.9532 6.45C26.5174 6.45 27.0585 6.67388 27.4574 7.0724C27.8564 7.47091 28.0805 8.01142 28.0805 8.575C28.0805 9.13859 27.8564 9.67909 27.4574 10.0776C27.0585 10.4761 26.5174 10.7 25.9532 10.7C25.389 10.7 24.8479 10.4761 24.449 10.0776C24.05 9.67909 23.8259 9.13859 23.8259 8.575C23.8259 8.01142 24.05 7.47091 24.449 7.0724C24.8479 6.67388 25.389 6.45 25.9532 6.45ZM17.0185 9C19.2753 9 21.4396 9.89553 23.0354 11.4896C24.6312 13.0837 25.5277 15.2457 25.5277 17.5C25.5277 19.7543 24.6312 21.9163 23.0354 23.5104C21.4396 25.1045 19.2753 26 17.0185 26C14.7617 26 12.5973 25.1045 11.0015 23.5104C9.40575 21.9163 8.50925 19.7543 8.50925 17.5C8.50925 15.2457 9.40575 13.0837 11.0015 11.4896C12.5973 9.89553 14.7617 9 17.0185 9ZM17.0185 12.4C15.6644 12.4 14.3658 12.9373 13.4083 13.8938C12.4508 14.8502 11.9129 16.1474 11.9129 17.5C11.9129 18.8526 12.4508 20.1498 13.4083 21.1062C14.3658 22.0627 15.6644 22.6 17.0185 22.6C18.3726 22.6 19.6712 22.0627 20.6287 21.1062C21.5861 20.1498 22.124 18.8526 22.124 17.5C22.124 16.1474 21.5861 14.8502 20.6287 13.8938C19.6712 12.9373 18.3726 12.4 17.0185 12.4Z" fill="#424242"/>
</svg>
