<svg width="559" height="165" viewBox="0 0 559 165" fill="none" xmlns="http://www.w3.org/2000/svg">
<rect x="0.5" y="20.5" width="558" height="144" stroke="#AF4682"/>
<rect x="127" width="288" height="40" fill="#AF4682"/>
<path d="M249.536 10.584C252.3 10.584 254.316 11.1797 255.586 12.3711C256.855 13.5527 257.49 15.1836 257.49 17.2637C257.49 18.2012 257.349 19.0996 257.065 19.959C256.782 20.8086 256.318 21.5654 255.674 22.2295C255.039 22.8936 254.189 23.4209 253.125 23.8115C252.061 24.1924 250.747 24.3828 249.185 24.3828H247.236V32H242.695V10.584H249.536ZM249.302 14.3047H247.236V20.6621H248.73C249.58 20.6621 250.317 20.5498 250.942 20.3252C251.567 20.1006 252.051 19.749 252.393 19.2705C252.734 18.792 252.905 18.1768 252.905 17.4248C252.905 16.3701 252.612 15.5889 252.026 15.0811C251.44 14.5635 250.532 14.3047 249.302 14.3047ZM274.864 23.7822C274.864 25.1494 274.679 26.3604 274.308 27.415C273.946 28.4697 273.414 29.3633 272.711 30.0957C272.018 30.8184 271.178 31.3652 270.192 31.7363C269.215 32.1074 268.112 32.293 266.881 32.293C265.729 32.293 264.669 32.1074 263.702 31.7363C262.745 31.3652 261.91 30.8184 261.197 30.0957C260.494 29.3633 259.947 28.4697 259.557 27.415C259.176 26.3604 258.986 25.1494 258.986 23.7822C258.986 21.9658 259.308 20.4277 259.952 19.168C260.597 17.9082 261.515 16.9512 262.706 16.2969C263.898 15.6426 265.319 15.3154 266.969 15.3154C268.502 15.3154 269.86 15.6426 271.041 16.2969C272.233 16.9512 273.165 17.9082 273.839 19.168C274.523 20.4277 274.864 21.9658 274.864 23.7822ZM263.541 23.7822C263.541 24.8564 263.658 25.7598 263.893 26.4922C264.127 27.2246 264.493 27.7764 264.991 28.1475C265.489 28.5186 266.139 28.7041 266.94 28.7041C267.731 28.7041 268.37 28.5186 268.859 28.1475C269.357 27.7764 269.718 27.2246 269.943 26.4922C270.177 25.7598 270.294 24.8564 270.294 23.7822C270.294 22.6982 270.177 21.7998 269.943 21.0869C269.718 20.3643 269.357 19.8223 268.859 19.4609C268.361 19.0996 267.711 18.9189 266.91 18.9189C265.729 18.9189 264.869 19.3242 264.332 20.1348C263.805 20.9453 263.541 22.1611 263.541 23.7822ZM288.782 27.1367C288.782 28.25 288.518 29.1924 287.991 29.9639C287.473 30.7256 286.697 31.3066 285.662 31.707C284.626 32.0977 283.337 32.293 281.794 32.293C280.652 32.293 279.67 32.2197 278.85 32.0732C278.039 31.9268 277.219 31.6826 276.389 31.3408V27.6494C277.278 28.0498 278.23 28.3818 279.246 28.6455C280.271 28.8994 281.169 29.0264 281.941 29.0264C282.81 29.0264 283.43 28.8994 283.801 28.6455C284.182 28.3818 284.372 28.04 284.372 27.6201C284.372 27.3467 284.294 27.1025 284.138 26.8877C283.992 26.6631 283.669 26.4141 283.171 26.1406C282.673 25.8574 281.892 25.4912 280.828 25.042C279.802 24.6123 278.957 24.1777 278.293 23.7383C277.639 23.2988 277.151 22.7812 276.829 22.1855C276.516 21.5801 276.36 20.8135 276.36 19.8857C276.36 18.3721 276.946 17.2344 278.118 16.4727C279.299 15.7012 280.876 15.3154 282.849 15.3154C283.865 15.3154 284.831 15.418 285.749 15.623C286.677 15.8281 287.629 16.1553 288.606 16.6045L287.258 19.8271C286.448 19.4756 285.681 19.1875 284.958 18.9629C284.246 18.7383 283.518 18.626 282.776 18.626C282.121 18.626 281.628 18.7139 281.296 18.8896C280.964 19.0654 280.798 19.334 280.798 19.6953C280.798 19.959 280.881 20.1934 281.047 20.3984C281.223 20.6035 281.555 20.833 282.043 21.0869C282.541 21.3311 283.269 21.6484 284.226 22.0391C285.154 22.4199 285.959 22.8203 286.643 23.2402C287.327 23.6504 287.854 24.1631 288.225 24.7783C288.596 25.3838 288.782 26.1699 288.782 27.1367ZM297.967 28.7334C298.456 28.7334 298.929 28.6846 299.388 28.5869C299.857 28.4893 300.321 28.3672 300.78 28.2207V31.5459C300.301 31.7607 299.706 31.9365 298.993 32.0732C298.29 32.2197 297.518 32.293 296.678 32.293C295.702 32.293 294.823 32.1367 294.042 31.8242C293.27 31.502 292.66 30.9502 292.211 30.1689C291.771 29.3779 291.551 28.2793 291.551 26.873V18.9775H289.413V17.0879L291.874 15.5938L293.163 12.1367H296.019V15.623H300.604V18.9775H296.019V26.873C296.019 27.498 296.195 27.9668 296.546 28.2793C296.908 28.582 297.381 28.7334 297.967 28.7334Z" fill="white"/>
</svg>
