<svg width="559" height="165" viewBox="0 0 559 165" fill="none" xmlns="http://www.w3.org/2000/svg">
<rect x="0.5" y="20.5" width="558" height="144" stroke="#AF4682"/>
<rect x="127.5" y="0.5" width="287" height="39" fill="#AF4682" stroke="#AF4682"/>
<mask id="path-3-outside-1_0_187" maskUnits="userSpaceOnUse" x="235" y="8" width="74" height="26" fill="black">
<rect fill="white" x="235" y="8" width="74" height="26"/>
<path d="M242.936 10.584C244.879 10.584 246.48 10.8184 247.74 11.2871C249.01 11.7559 249.952 12.4639 250.567 13.4111C251.183 14.3584 251.49 15.5547 251.49 17C251.49 17.9766 251.305 18.8311 250.934 19.5635C250.562 20.2959 250.074 20.916 249.469 21.4238C248.863 21.9316 248.209 22.3467 247.506 22.6689L253.805 32H248.766L243.653 23.7822H241.236V32H236.695V10.584H242.936ZM242.613 14.3047H241.236V20.0908H242.701C244.205 20.0908 245.279 19.8418 245.924 19.3438C246.578 18.8359 246.905 18.0938 246.905 17.1172C246.905 16.1016 246.554 15.3789 245.851 14.9492C245.157 14.5195 244.078 14.3047 242.613 14.3047ZM261.701 15.3154C263.215 15.3154 264.519 15.6084 265.612 16.1943C266.706 16.7705 267.551 17.6104 268.147 18.7139C268.742 19.8174 269.04 21.165 269.04 22.7568V24.9248H258.479C258.528 26.1846 258.904 27.1758 259.607 27.8984C260.32 28.6113 261.306 28.9678 262.566 28.9678C263.611 28.9678 264.568 28.8604 265.437 28.6455C266.306 28.4307 267.199 28.1084 268.117 27.6787V31.1357C267.307 31.5361 266.457 31.8291 265.569 32.0146C264.69 32.2002 263.62 32.293 262.361 32.293C260.72 32.293 259.265 31.9902 257.995 31.3848C256.736 30.7793 255.744 29.8564 255.022 28.6162C254.309 27.376 253.952 25.8135 253.952 23.9287C253.952 22.0146 254.275 20.4229 254.919 19.1533C255.573 17.874 256.482 16.917 257.644 16.2822C258.806 15.6377 260.158 15.3154 261.701 15.3154ZM261.731 18.4941C260.862 18.4941 260.139 18.7725 259.563 19.3291C258.996 19.8857 258.669 20.7598 258.581 21.9512H264.851C264.841 21.2871 264.719 20.6963 264.485 20.1787C264.26 19.6611 263.918 19.251 263.459 18.9482C263.01 18.6455 262.434 18.4941 261.731 18.4941ZM278.226 15.3154C279.74 15.3154 281.043 15.6084 282.137 16.1943C283.231 16.7705 284.076 17.6104 284.671 18.7139C285.267 19.8174 285.565 21.165 285.565 22.7568V24.9248H275.003C275.052 26.1846 275.428 27.1758 276.131 27.8984C276.844 28.6113 277.83 28.9678 279.09 28.9678C280.135 28.9678 281.092 28.8604 281.961 28.6455C282.83 28.4307 283.724 28.1084 284.642 27.6787V31.1357C283.831 31.5361 282.982 31.8291 282.093 32.0146C281.214 32.2002 280.145 32.293 278.885 32.293C277.245 32.293 275.789 31.9902 274.52 31.3848C273.26 30.7793 272.269 29.8564 271.546 28.6162C270.833 27.376 270.477 25.8135 270.477 23.9287C270.477 22.0146 270.799 20.4229 271.444 19.1533C272.098 17.874 273.006 16.917 274.168 16.2822C275.33 15.6377 276.683 15.3154 278.226 15.3154ZM278.255 18.4941C277.386 18.4941 276.663 18.7725 276.087 19.3291C275.521 19.8857 275.194 20.7598 275.106 21.9512H281.375C281.366 21.2871 281.244 20.6963 281.009 20.1787C280.785 19.6611 280.443 19.251 279.984 18.9482C279.535 18.6455 278.958 18.4941 278.255 18.4941ZM292.465 32H287.998V9.20703H292.465V32ZM307.393 27.1367C307.393 28.25 307.13 29.1924 306.602 29.9639C306.085 30.7256 305.308 31.3066 304.273 31.707C303.238 32.0977 301.949 32.293 300.406 32.293C299.263 32.293 298.282 32.2197 297.462 32.0732C296.651 31.9268 295.831 31.6826 295.001 31.3408V27.6494C295.889 28.0498 296.842 28.3818 297.857 28.6455C298.883 28.8994 299.781 29.0264 300.553 29.0264C301.422 29.0264 302.042 28.8994 302.413 28.6455C302.794 28.3818 302.984 28.04 302.984 27.6201C302.984 27.3467 302.906 27.1025 302.75 26.8877C302.603 26.6631 302.281 26.4141 301.783 26.1406C301.285 25.8574 300.504 25.4912 299.439 25.042C298.414 24.6123 297.569 24.1777 296.905 23.7383C296.251 23.2988 295.763 22.7812 295.44 22.1855C295.128 21.5801 294.971 20.8135 294.971 19.8857C294.971 18.3721 295.557 17.2344 296.729 16.4727C297.911 15.7012 299.488 15.3154 301.461 15.3154C302.476 15.3154 303.443 15.418 304.361 15.623C305.289 15.8281 306.241 16.1553 307.218 16.6045L305.87 19.8271C305.059 19.4756 304.293 19.1875 303.57 18.9629C302.857 18.7383 302.13 18.626 301.388 18.626C300.733 18.626 300.24 18.7139 299.908 18.8896C299.576 19.0654 299.41 19.334 299.41 19.6953C299.41 19.959 299.493 20.1934 299.659 20.3984C299.835 20.6035 300.167 20.833 300.655 21.0869C301.153 21.3311 301.881 21.6484 302.838 22.0391C303.765 22.4199 304.571 22.8203 305.255 23.2402C305.938 23.6504 306.466 24.1631 306.837 24.7783C307.208 25.3838 307.393 26.1699 307.393 27.1367Z"/>
</mask>
<path d="M242.936 10.584C244.879 10.584 246.48 10.8184 247.74 11.2871C249.01 11.7559 249.952 12.4639 250.567 13.4111C251.183 14.3584 251.49 15.5547 251.49 17C251.49 17.9766 251.305 18.8311 250.934 19.5635C250.562 20.2959 250.074 20.916 249.469 21.4238C248.863 21.9316 248.209 22.3467 247.506 22.6689L253.805 32H248.766L243.653 23.7822H241.236V32H236.695V10.584H242.936ZM242.613 14.3047H241.236V20.0908H242.701C244.205 20.0908 245.279 19.8418 245.924 19.3438C246.578 18.8359 246.905 18.0938 246.905 17.1172C246.905 16.1016 246.554 15.3789 245.851 14.9492C245.157 14.5195 244.078 14.3047 242.613 14.3047ZM261.701 15.3154C263.215 15.3154 264.519 15.6084 265.612 16.1943C266.706 16.7705 267.551 17.6104 268.147 18.7139C268.742 19.8174 269.04 21.165 269.04 22.7568V24.9248H258.479C258.528 26.1846 258.904 27.1758 259.607 27.8984C260.32 28.6113 261.306 28.9678 262.566 28.9678C263.611 28.9678 264.568 28.8604 265.437 28.6455C266.306 28.4307 267.199 28.1084 268.117 27.6787V31.1357C267.307 31.5361 266.457 31.8291 265.569 32.0146C264.69 32.2002 263.62 32.293 262.361 32.293C260.72 32.293 259.265 31.9902 257.995 31.3848C256.736 30.7793 255.744 29.8564 255.022 28.6162C254.309 27.376 253.952 25.8135 253.952 23.9287C253.952 22.0146 254.275 20.4229 254.919 19.1533C255.573 17.874 256.482 16.917 257.644 16.2822C258.806 15.6377 260.158 15.3154 261.701 15.3154ZM261.731 18.4941C260.862 18.4941 260.139 18.7725 259.563 19.3291C258.996 19.8857 258.669 20.7598 258.581 21.9512H264.851C264.841 21.2871 264.719 20.6963 264.485 20.1787C264.26 19.6611 263.918 19.251 263.459 18.9482C263.01 18.6455 262.434 18.4941 261.731 18.4941ZM278.226 15.3154C279.74 15.3154 281.043 15.6084 282.137 16.1943C283.231 16.7705 284.076 17.6104 284.671 18.7139C285.267 19.8174 285.565 21.165 285.565 22.7568V24.9248H275.003C275.052 26.1846 275.428 27.1758 276.131 27.8984C276.844 28.6113 277.83 28.9678 279.09 28.9678C280.135 28.9678 281.092 28.8604 281.961 28.6455C282.83 28.4307 283.724 28.1084 284.642 27.6787V31.1357C283.831 31.5361 282.982 31.8291 282.093 32.0146C281.214 32.2002 280.145 32.293 278.885 32.293C277.245 32.293 275.789 31.9902 274.52 31.3848C273.26 30.7793 272.269 29.8564 271.546 28.6162C270.833 27.376 270.477 25.8135 270.477 23.9287C270.477 22.0146 270.799 20.4229 271.444 19.1533C272.098 17.874 273.006 16.917 274.168 16.2822C275.33 15.6377 276.683 15.3154 278.226 15.3154ZM278.255 18.4941C277.386 18.4941 276.663 18.7725 276.087 19.3291C275.521 19.8857 275.194 20.7598 275.106 21.9512H281.375C281.366 21.2871 281.244 20.6963 281.009 20.1787C280.785 19.6611 280.443 19.251 279.984 18.9482C279.535 18.6455 278.958 18.4941 278.255 18.4941ZM292.465 32H287.998V9.20703H292.465V32ZM307.393 27.1367C307.393 28.25 307.13 29.1924 306.602 29.9639C306.085 30.7256 305.308 31.3066 304.273 31.707C303.238 32.0977 301.949 32.293 300.406 32.293C299.263 32.293 298.282 32.2197 297.462 32.0732C296.651 31.9268 295.831 31.6826 295.001 31.3408V27.6494C295.889 28.0498 296.842 28.3818 297.857 28.6455C298.883 28.8994 299.781 29.0264 300.553 29.0264C301.422 29.0264 302.042 28.8994 302.413 28.6455C302.794 28.3818 302.984 28.04 302.984 27.6201C302.984 27.3467 302.906 27.1025 302.75 26.8877C302.603 26.6631 302.281 26.4141 301.783 26.1406C301.285 25.8574 300.504 25.4912 299.439 25.042C298.414 24.6123 297.569 24.1777 296.905 23.7383C296.251 23.2988 295.763 22.7812 295.44 22.1855C295.128 21.5801 294.971 20.8135 294.971 19.8857C294.971 18.3721 295.557 17.2344 296.729 16.4727C297.911 15.7012 299.488 15.3154 301.461 15.3154C302.476 15.3154 303.443 15.418 304.361 15.623C305.289 15.8281 306.241 16.1553 307.218 16.6045L305.87 19.8271C305.059 19.4756 304.293 19.1875 303.57 18.9629C302.857 18.7383 302.13 18.626 301.388 18.626C300.733 18.626 300.24 18.7139 299.908 18.8896C299.576 19.0654 299.41 19.334 299.41 19.6953C299.41 19.959 299.493 20.1934 299.659 20.3984C299.835 20.6035 300.167 20.833 300.655 21.0869C301.153 21.3311 301.881 21.6484 302.838 22.0391C303.765 22.4199 304.571 22.8203 305.255 23.2402C305.938 23.6504 306.466 24.1631 306.837 24.7783C307.208 25.3838 307.393 26.1699 307.393 27.1367Z" fill="white"/>
<path d="M247.74 11.2871L247.391 12.2243L247.394 12.2252L247.74 11.2871ZM247.506 22.6689L247.089 21.7599L246.017 22.2512L246.677 23.2284L247.506 22.6689ZM253.805 32V33H255.686L254.634 31.4405L253.805 32ZM248.766 32L247.917 32.5282L248.21 33H248.766V32ZM243.653 23.7822L244.502 23.254L244.209 22.7822H243.653V23.7822ZM241.236 23.7822V22.7822H240.236V23.7822H241.236ZM241.236 32V33H242.236V32H241.236ZM236.695 32H235.695V33H236.695V32ZM236.695 10.584V9.58398H235.695V10.584H236.695ZM241.236 14.3047V13.3047H240.236V14.3047H241.236ZM241.236 20.0908H240.236V21.0908H241.236V20.0908ZM245.924 19.3438L246.535 20.135L246.537 20.1337L245.924 19.3438ZM245.851 14.9492L245.324 15.7992L245.329 15.8025L245.851 14.9492ZM242.936 10.584V11.584C244.808 11.584 246.281 11.8112 247.392 12.2243L247.74 11.2871L248.089 10.3499C246.68 9.82554 244.949 9.58398 242.936 9.58398V10.584ZM247.74 11.2871L247.394 12.2252C248.502 12.6345 249.253 13.223 249.729 13.9558L250.567 13.4111L251.406 12.8664C250.652 11.7048 249.517 10.8772 248.087 10.349L247.74 11.2871ZM250.567 13.4111L249.729 13.9558C250.213 14.7012 250.49 15.6944 250.49 17H251.49H252.49C252.49 15.4149 252.152 14.0156 251.406 12.8664L250.567 13.4111ZM251.49 17H250.49C250.49 17.8491 250.329 18.5433 250.042 19.1115L250.934 19.5635L251.826 20.0154C252.28 19.1188 252.49 18.1041 252.49 17H251.49ZM250.934 19.5635L250.042 19.1115C249.729 19.7282 249.324 20.24 248.826 20.6576L249.469 21.4238L250.111 22.19C250.824 21.592 251.396 20.8636 251.826 20.0154L250.934 19.5635ZM249.469 21.4238L248.826 20.6576C248.288 21.1092 247.709 21.4757 247.089 21.7599L247.506 22.6689L247.923 23.578C248.709 23.2176 249.439 22.7541 250.111 22.19L249.469 21.4238ZM247.506 22.6689L246.677 23.2284L252.976 32.5595L253.805 32L254.634 31.4405L248.335 22.1094L247.506 22.6689ZM253.805 32V31H248.766V32V33H253.805V32ZM248.766 32L249.615 31.4718L244.502 23.254L243.653 23.7822L242.804 24.3105L247.917 32.5282L248.766 32ZM243.653 23.7822V22.7822H241.236V23.7822V24.7822H243.653V23.7822ZM241.236 23.7822H240.236V32H241.236H242.236V23.7822H241.236ZM241.236 32V31H236.695V32V33H241.236V32ZM236.695 32H237.695V10.584H236.695H235.695V32H236.695ZM236.695 10.584V11.584H242.936V10.584V9.58398H236.695V10.584ZM242.613 14.3047V13.3047H241.236V14.3047V15.3047H242.613V14.3047ZM241.236 14.3047H240.236V20.0908H241.236H242.236V14.3047H241.236ZM241.236 20.0908V21.0908H242.701V20.0908V19.0908H241.236V20.0908ZM242.701 20.0908V21.0908C244.263 21.0908 245.62 20.8425 246.535 20.135L245.924 19.3438L245.312 18.5525C244.939 18.8411 244.147 19.0908 242.701 19.0908V20.0908ZM245.924 19.3438L246.537 20.1337C247.481 19.4014 247.905 18.3405 247.905 17.1172H246.905H245.905C245.905 17.847 245.676 18.2705 245.311 18.5538L245.924 19.3438ZM246.905 17.1172H247.905C247.905 15.847 247.445 14.7513 246.372 14.0959L245.851 14.9492L245.329 15.8025C245.663 16.0065 245.905 16.3561 245.905 17.1172H246.905ZM245.851 14.9492L246.377 14.0992C245.444 13.5209 244.136 13.3047 242.613 13.3047V14.3047V15.3047C244.02 15.3047 244.87 15.5182 245.324 15.7992L245.851 14.9492ZM265.612 16.1943L265.14 17.0758L265.146 17.0791L265.612 16.1943ZM269.04 24.9248V25.9248H270.04V24.9248H269.04ZM258.479 24.9248V23.9248H257.439L257.479 24.9635L258.479 24.9248ZM259.607 27.8984L258.89 28.5959L258.9 28.6055L259.607 27.8984ZM268.117 27.6787H269.117V26.1065L267.693 26.773L268.117 27.6787ZM268.117 31.1357L268.56 32.0323L269.117 31.7571V31.1357H268.117ZM265.569 32.0146L265.364 31.0358L265.362 31.0362L265.569 32.0146ZM257.995 31.3848L257.562 32.2861L257.565 32.2874L257.995 31.3848ZM255.022 28.6162L254.155 29.1146L254.158 29.1197L255.022 28.6162ZM254.919 19.1533L254.029 18.698L254.027 18.7006L254.919 19.1533ZM257.644 16.2822L258.123 17.1599L258.129 17.1567L257.644 16.2822ZM259.563 19.3291L258.868 18.6099L258.862 18.6159L259.563 19.3291ZM258.581 21.9512L257.584 21.8776L257.505 22.9512H258.581V21.9512ZM264.851 21.9512V22.9512H265.866L265.851 21.9365L264.851 21.9512ZM264.485 20.1787L263.567 20.5768L263.57 20.584L263.574 20.5912L264.485 20.1787ZM263.459 18.9482L262.9 19.7775L262.909 19.783L263.459 18.9482ZM261.701 15.3154V16.3154C263.086 16.3154 264.22 16.583 265.14 17.0758L265.612 16.1943L266.085 15.3129C264.817 14.6338 263.344 14.3154 261.701 14.3154V15.3154ZM265.612 16.1943L265.146 17.0791C266.062 17.5614 266.764 18.2573 267.267 19.1889L268.147 18.7139L269.027 18.2388C268.338 16.9634 267.351 15.9797 266.079 15.3096L265.612 16.1943ZM268.147 18.7139L267.267 19.1889C267.765 20.1123 268.04 21.2872 268.04 22.7568H269.04H270.04C270.04 21.0429 269.72 19.5224 269.027 18.2388L268.147 18.7139ZM269.04 22.7568H268.04V24.9248H269.04H270.04V22.7568H269.04ZM269.04 24.9248V23.9248H258.479V24.9248V25.9248H269.04V24.9248ZM258.479 24.9248L257.479 24.9635C257.535 26.4059 257.974 27.6548 258.89 28.5958L259.607 27.8984L260.323 27.2011C259.833 26.6968 259.52 25.9632 259.478 24.8861L258.479 24.9248ZM259.607 27.8984L258.9 28.6055C259.844 29.5502 261.111 29.9678 262.566 29.9678V28.9678V27.9678C261.501 27.9678 260.795 27.6724 260.314 27.1913L259.607 27.8984ZM262.566 28.9678V29.9678C263.678 29.9678 264.717 29.8535 265.677 29.6163L265.437 28.6455L265.197 27.6747C264.418 27.8673 263.543 27.9678 262.566 27.9678V28.9678ZM265.437 28.6455L265.677 29.6163C266.617 29.3839 267.572 29.0382 268.541 28.5844L268.117 27.6787L267.693 26.773C266.827 27.1786 265.995 27.4774 265.197 27.6747L265.437 28.6455ZM268.117 27.6787H267.117V31.1357H268.117H269.117V27.6787H268.117ZM268.117 31.1357L267.674 30.2392C266.94 30.602 266.171 30.8674 265.364 31.0358L265.569 32.0146L265.773 32.9935C266.744 32.7908 267.674 32.4703 268.56 32.0323L268.117 31.1357ZM265.569 32.0146L265.362 31.0362C264.572 31.203 263.576 31.293 262.361 31.293V32.293V33.293C263.664 33.293 264.807 33.1974 265.775 32.9931L265.569 32.0146ZM262.361 32.293V31.293C260.844 31.293 259.54 31.0137 258.426 30.4822L257.995 31.3848L257.565 32.2874C258.989 32.9668 260.596 33.293 262.361 33.293V32.293ZM257.995 31.3848L258.428 30.4835C257.354 29.967 256.511 29.1853 255.886 28.1128L255.022 28.6162L254.158 29.1197C254.978 30.5276 256.117 31.5916 257.562 32.2861L257.995 31.3848ZM255.022 28.6162L255.889 28.1179C255.286 27.07 254.952 25.6925 254.952 23.9287H253.952H252.952C252.952 25.9345 253.331 27.682 254.155 29.1146L255.022 28.6162ZM253.952 23.9287H254.952C254.952 22.1203 255.258 20.6955 255.811 19.606L254.919 19.1533L254.027 18.7006C253.292 20.1502 252.952 21.909 252.952 23.9287H253.952ZM254.919 19.1533L255.809 19.6087C256.38 18.4923 257.152 17.6901 258.123 17.1598L257.644 16.2822L257.164 15.4046C255.811 16.1439 254.766 17.2558 254.029 18.698L254.919 19.1533ZM257.644 16.2822L258.129 17.1567C259.12 16.6069 260.301 16.3154 261.701 16.3154V15.3154V14.3154C260.016 14.3154 258.492 14.6685 257.159 15.4077L257.644 16.2822ZM261.731 18.4941V17.4941C260.626 17.4941 259.647 17.857 258.868 18.6099L259.563 19.3291L260.258 20.0483C260.631 19.6879 261.097 19.4941 261.731 19.4941V18.4941ZM259.563 19.3291L258.862 18.6159C258.053 19.4106 257.681 20.5623 257.584 21.8776L258.581 21.9512L259.579 22.0247C259.657 20.9572 259.94 20.3609 260.264 20.0423L259.563 19.3291ZM258.581 21.9512V22.9512H264.851V21.9512V20.9512H258.581V21.9512ZM264.851 21.9512L265.851 21.9365C265.839 21.158 265.695 20.4282 265.396 19.7662L264.485 20.1787L263.574 20.5912C263.743 20.9644 263.843 21.4162 263.851 21.9659L264.851 21.9512ZM264.485 20.1787L265.402 19.7806C265.102 19.0899 264.635 18.526 264.01 18.1135L263.459 18.9482L262.909 19.783C263.201 19.9759 263.418 20.2324 263.567 20.5768L264.485 20.1787ZM263.459 18.9482L264.018 18.119C263.361 17.6761 262.574 17.4941 261.731 17.4941V18.4941V19.4941C262.293 19.4941 262.659 19.6149 262.9 19.7775L263.459 18.9482ZM282.137 16.1943L281.665 17.0758L281.671 17.0791L282.137 16.1943ZM285.565 24.9248V25.9248H286.565V24.9248H285.565ZM275.003 24.9248V23.9248H273.964L274.004 24.9635L275.003 24.9248ZM276.131 27.8984L275.414 28.5959L275.424 28.6055L276.131 27.8984ZM284.642 27.6787H285.642V26.1065L284.218 26.773L284.642 27.6787ZM284.642 31.1357L285.085 32.0323L285.642 31.7571V31.1357H284.642ZM282.093 32.0146L281.889 31.0358L281.887 31.0362L282.093 32.0146ZM274.52 31.3848L274.087 32.2861L274.089 32.2874L274.52 31.3848ZM271.546 28.6162L270.679 29.1146L270.682 29.1197L271.546 28.6162ZM271.444 19.1533L270.553 18.698L270.552 18.7006L271.444 19.1533ZM274.168 16.2822L274.648 17.1599L274.653 17.1567L274.168 16.2822ZM276.087 19.3291L275.392 18.6099L275.386 18.6159L276.087 19.3291ZM275.106 21.9512L274.109 21.8776L274.029 22.9512H275.106V21.9512ZM281.375 21.9512V22.9512H282.39L282.375 21.9365L281.375 21.9512ZM281.009 20.1787L280.092 20.5768L280.095 20.584L280.098 20.5912L281.009 20.1787ZM279.984 18.9482L279.425 19.7775L279.433 19.783L279.984 18.9482ZM278.226 15.3154V16.3154C279.611 16.3154 280.745 16.583 281.665 17.0758L282.137 16.1943L282.609 15.3129C281.342 14.6338 279.869 14.3154 278.226 14.3154V15.3154ZM282.137 16.1943L281.671 17.0791C282.587 17.5614 283.288 18.2573 283.791 19.1889L284.671 18.7139L285.551 18.2388C284.863 16.9634 283.875 15.9797 282.603 15.3096L282.137 16.1943ZM284.671 18.7139L283.791 19.1889C284.29 20.1123 284.565 21.2872 284.565 22.7568H285.565H286.565C286.565 21.0429 286.244 19.5224 285.551 18.2388L284.671 18.7139ZM285.565 22.7568H284.565V24.9248H285.565H286.565V22.7568H285.565ZM285.565 24.9248V23.9248H275.003V24.9248V25.9248H285.565V24.9248ZM275.003 24.9248L274.004 24.9635C274.06 26.4059 274.499 27.6548 275.415 28.5958L276.131 27.8984L276.848 27.2011C276.357 26.6968 276.044 25.9632 276.003 24.8861L275.003 24.9248ZM276.131 27.8984L275.424 28.6055C276.369 29.5502 277.635 29.9678 279.09 29.9678V28.9678V27.9678C278.026 27.9678 277.319 27.6724 276.838 27.1913L276.131 27.8984ZM279.09 28.9678V29.9678C280.203 29.9678 281.242 29.8535 282.201 29.6163L281.961 28.6455L281.721 27.6747C280.943 27.8673 280.067 27.9678 279.09 27.9678V28.9678ZM281.961 28.6455L282.201 29.6163C283.141 29.3839 284.097 29.0382 285.066 28.5844L284.642 27.6787L284.218 26.773C283.352 27.1786 282.52 27.4774 281.721 27.6747L281.961 28.6455ZM284.642 27.6787H283.642V31.1357H284.642H285.642V27.6787H284.642ZM284.642 31.1357L284.199 30.2392C283.465 30.602 282.695 30.8674 281.889 31.0358L282.093 32.0146L282.298 32.9935C283.269 32.7908 284.198 32.4703 285.085 32.0323L284.642 31.1357ZM282.093 32.0146L281.887 31.0362C281.097 31.203 280.101 31.293 278.885 31.293V32.293V33.293C280.189 33.293 281.332 33.1974 282.3 32.9931L282.093 32.0146ZM278.885 32.293V31.293C277.369 31.293 276.065 31.0137 274.95 30.4822L274.52 31.3848L274.089 32.2874C275.514 32.9668 277.12 33.293 278.885 33.293V32.293ZM274.52 31.3848L274.953 30.4835C273.879 29.967 273.035 29.1853 272.41 28.1128L271.546 28.6162L270.682 29.1197C271.503 30.5276 272.642 31.5916 274.087 32.2861L274.52 31.3848ZM271.546 28.6162L272.413 28.1179C271.811 27.07 271.477 25.6925 271.477 23.9287H270.477H269.477C269.477 25.9345 269.856 27.682 270.679 29.1146L271.546 28.6162ZM270.477 23.9287H271.477C271.477 22.1203 271.782 20.6955 272.335 19.606L271.444 19.1533L270.552 18.7006C269.816 20.1502 269.477 21.909 269.477 23.9287H270.477ZM271.444 19.1533L272.334 19.6087C272.905 18.4923 273.677 17.6901 274.648 17.1598L274.168 16.2822L273.689 15.4046C272.335 16.1439 271.291 17.2558 270.553 18.698L271.444 19.1533ZM274.168 16.2822L274.653 17.1567C275.645 16.6069 276.825 16.3154 278.226 16.3154V15.3154V14.3154C276.541 14.3154 275.016 14.6685 273.683 15.4077L274.168 16.2822ZM278.255 18.4941V17.4941C277.151 17.4941 276.172 17.857 275.392 18.6099L276.087 19.3291L276.782 20.0483C277.155 19.6879 277.621 19.4941 278.255 19.4941V18.4941ZM276.087 19.3291L275.386 18.6159C274.578 19.4106 274.206 20.5623 274.109 21.8776L275.106 21.9512L276.103 22.0247C276.182 20.9572 276.464 20.3609 276.788 20.0423L276.087 19.3291ZM275.106 21.9512V22.9512H281.375V21.9512V20.9512H275.106V21.9512ZM281.375 21.9512L282.375 21.9365C282.364 21.158 282.22 20.4282 281.92 19.7662L281.009 20.1787L280.098 20.5912C280.267 20.9644 280.367 21.4162 280.375 21.9659L281.375 21.9512ZM281.009 20.1787L281.927 19.7806C281.627 19.0899 281.16 18.526 280.534 18.1135L279.984 18.9482L279.433 19.783C279.726 19.9759 279.942 20.2324 280.092 20.5768L281.009 20.1787ZM279.984 18.9482L280.543 18.119C279.885 17.6761 279.099 17.4941 278.255 17.4941V18.4941V19.4941C278.818 19.4941 279.184 19.6149 279.425 19.7775L279.984 18.9482ZM292.465 32V33H293.465V32H292.465ZM287.998 32H286.998V33H287.998V32ZM287.998 9.20703V8.20703H286.998V9.20703H287.998ZM292.465 9.20703H293.465V8.20703H292.465V9.20703ZM292.465 32V31H287.998V32V33H292.465V32ZM287.998 32H288.998V9.20703H287.998H286.998V32H287.998ZM287.998 9.20703V10.207H292.465V9.20703V8.20703H287.998V9.20703ZM292.465 9.20703H291.465V32H292.465H293.465V9.20703H292.465ZM306.602 29.9639L305.777 29.3996L305.775 29.4018L306.602 29.9639ZM304.273 31.707L304.626 32.6427L304.634 32.6397L304.273 31.707ZM297.462 32.0732L297.284 33.0573L297.286 33.0577L297.462 32.0732ZM295.001 31.3408H294.001V32.0105L294.62 32.2655L295.001 31.3408ZM295.001 27.6494L295.412 26.7377L294.001 26.1021V27.6494H295.001ZM297.857 28.6455L297.606 29.6135L297.617 29.6162L297.857 28.6455ZM302.413 28.6455L302.978 29.4708L302.982 29.4677L302.413 28.6455ZM302.75 26.8877L301.912 27.434L301.926 27.4553L301.941 27.4759L302.75 26.8877ZM301.783 26.1406L301.289 27.0099L301.295 27.0136L301.302 27.0172L301.783 26.1406ZM299.439 25.042L299.828 24.1207L299.826 24.1197L299.439 25.042ZM296.905 23.7383L296.348 24.5684L296.353 24.5722L296.905 23.7383ZM295.44 22.1855L294.552 22.6442L294.556 22.6528L294.561 22.6614L295.44 22.1855ZM296.729 16.4727L297.274 17.3111L297.276 17.31L296.729 16.4727ZM304.361 15.623L304.143 16.599L304.145 16.5995L304.361 15.623ZM307.218 16.6045L308.14 16.9903L308.513 16.0995L307.635 15.696L307.218 16.6045ZM305.87 19.8271L305.472 20.7446L306.402 21.1478L306.793 20.213L305.87 19.8271ZM303.57 18.9629L303.27 19.9167L303.273 19.9178L303.57 18.9629ZM299.659 20.3984L298.882 21.0276L298.891 21.0386L298.9 21.0492L299.659 20.3984ZM300.655 21.0869L300.194 21.9741L300.204 21.9796L300.215 21.9848L300.655 21.0869ZM302.838 22.0391L303.217 21.114L303.216 21.1132L302.838 22.0391ZM305.255 23.2402L304.731 24.0924L304.74 24.0977L305.255 23.2402ZM306.837 24.7783L305.98 25.2948L305.984 25.3009L306.837 24.7783ZM307.393 27.1367H306.393C306.393 28.0879 306.17 28.824 305.777 29.3996L306.602 29.9639L307.428 30.5282C308.089 29.5607 308.393 28.4121 308.393 27.1367H307.393ZM306.602 29.9639L305.775 29.4018C305.394 29.9635 304.798 30.432 303.912 30.7744L304.273 31.707L304.634 32.6397C305.819 32.1813 306.776 31.4876 307.429 30.5259L306.602 29.9639ZM304.273 31.707L303.92 30.7714C303.033 31.1063 301.872 31.293 300.406 31.293V32.293V33.293C302.026 33.293 303.443 33.089 304.626 32.6426L304.273 31.707ZM300.406 32.293V31.293C299.302 31.293 298.383 31.2219 297.638 31.0888L297.462 32.0732L297.286 33.0577C298.181 33.2175 299.225 33.293 300.406 33.293V32.293ZM297.462 32.0732L297.64 31.0892C296.904 30.9563 296.152 30.7334 295.382 30.4161L295.001 31.3408L294.62 32.2655C295.51 32.6318 296.398 32.8972 297.284 33.0573L297.462 32.0732ZM295.001 31.3408H296.001V27.6494H295.001H294.001V31.3408H295.001ZM295.001 27.6494L294.59 28.5611C295.534 28.9864 296.54 29.3366 297.606 29.6134L297.857 28.6455L298.109 27.6776C297.143 27.427 296.245 27.1132 295.412 26.7377L295.001 27.6494ZM297.857 28.6455L297.617 29.6162C298.694 29.883 299.677 30.0264 300.553 30.0264V29.0264V28.0264C299.886 28.0264 299.071 27.9159 298.098 27.6748L297.857 28.6455ZM300.553 29.0264V30.0264C301.465 30.0264 302.345 29.9035 302.978 29.4708L302.413 28.6455L301.848 27.8202C301.738 27.8954 301.379 28.0264 300.553 28.0264V29.0264ZM302.413 28.6455L302.982 29.4677C303.6 29.0398 303.984 28.4059 303.984 27.6201H302.984H301.984C301.984 27.6726 301.974 27.6935 301.968 27.7047C301.96 27.7195 301.931 27.7627 301.844 27.8233L302.413 28.6455ZM302.984 27.6201H303.984C303.984 27.142 303.843 26.6906 303.559 26.2995L302.75 26.8877L301.941 27.4759C301.969 27.5145 301.984 27.5514 301.984 27.6201H302.984ZM302.75 26.8877L303.587 26.3414C303.296 25.8945 302.779 25.5468 302.264 25.264L301.783 26.1406L301.302 27.0172C301.522 27.1379 301.679 27.2407 301.787 27.3238C301.9 27.4116 301.923 27.4508 301.912 27.434L302.75 26.8877ZM301.783 26.1406L302.277 25.2713C301.726 24.9578 300.9 24.5731 299.828 24.1207L299.439 25.042L299.05 25.9633C300.107 26.4093 300.844 26.757 301.289 27.0099L301.783 26.1406ZM299.439 25.042L299.826 24.1197C298.837 23.7055 298.053 23.2987 297.457 22.9043L296.905 23.7383L296.353 24.5722C297.085 25.0568 297.99 25.5191 299.053 25.9643L299.439 25.042ZM296.905 23.7383L297.463 22.9081C296.921 22.5442 296.553 22.1413 296.32 21.7097L295.44 22.1855L294.561 22.6614C294.972 23.4212 295.581 24.0535 296.348 24.5684L296.905 23.7383ZM295.44 22.1855L296.329 21.7269C296.111 21.3051 295.971 20.7088 295.971 19.8857H294.971H293.971C293.971 20.9182 294.144 21.8551 294.552 22.6442L295.44 22.1855ZM294.971 19.8857H295.971C295.971 18.6771 296.413 17.8708 297.274 17.3111L296.729 16.4727L296.184 15.6342C294.702 16.5979 293.971 18.067 293.971 19.8857H294.971ZM296.729 16.4727L297.276 17.31C298.242 16.679 299.608 16.3154 301.461 16.3154V15.3154V14.3154C299.368 14.3154 297.579 14.7233 296.183 15.6353L296.729 16.4727ZM301.461 15.3154V16.3154C302.409 16.3154 303.302 16.4111 304.143 16.599L304.361 15.623L304.579 14.6471C303.584 14.4248 302.544 14.3154 301.461 14.3154V15.3154ZM304.361 15.623L304.145 16.5995C304.995 16.7873 305.88 17.0897 306.8 17.513L307.218 16.6045L307.635 15.696C306.602 15.2208 305.583 14.8689 304.577 14.6466L304.361 15.623ZM307.218 16.6045L306.295 16.2187L304.947 19.4413L305.87 19.8271L306.793 20.213L308.14 16.9903L307.218 16.6045ZM305.87 19.8271L306.268 18.9097C305.43 18.5462 304.629 18.2448 303.867 18.008L303.57 18.9629L303.273 19.9178C303.956 20.1302 304.689 20.405 305.472 20.7446L305.87 19.8271ZM303.57 18.9629L303.871 18.0091C303.061 17.7541 302.232 17.626 301.387 17.626V18.626V19.626C302.027 19.626 302.653 19.7225 303.27 19.9167L303.57 18.9629ZM301.387 18.626V17.626C300.675 17.626 299.987 17.7165 299.44 18.0059L299.908 18.8896L300.376 19.7734C300.493 19.7112 300.792 19.626 301.387 19.626V18.626ZM299.908 18.8896L299.44 18.0059C299.147 18.1611 298.877 18.3851 298.684 18.6971C298.49 19.0112 298.41 19.3563 298.41 19.6953H299.41H300.41C300.41 19.6817 300.411 19.6836 300.408 19.6966C300.404 19.7104 300.397 19.7292 300.385 19.7487C300.373 19.7681 300.361 19.7801 300.356 19.7851C300.351 19.7894 300.355 19.7843 300.376 19.7734L299.908 18.8896ZM299.41 19.6953H298.41C298.41 20.1882 298.572 20.6447 298.882 21.0276L299.659 20.3984L300.436 19.7692C300.42 19.7496 300.416 19.7387 300.415 19.735C300.414 19.7314 300.41 19.7203 300.41 19.6953H299.41ZM299.659 20.3984L298.9 21.0492C299.207 21.4079 299.685 21.7096 300.194 21.9741L300.655 21.0869L301.116 20.1997C300.649 19.9564 300.462 19.7991 300.418 19.7476L299.659 20.3984ZM300.655 21.0869L300.215 21.9848C300.744 22.2441 301.496 22.5717 302.46 22.9649L302.838 22.0391L303.216 21.1132C302.265 20.7252 301.562 20.418 301.095 20.189L300.655 21.0869ZM302.838 22.0391L302.458 22.9641C303.348 23.3294 304.103 23.7065 304.731 24.0923L305.255 23.2402L305.778 22.3882C305.039 21.9341 304.183 21.5105 303.217 21.114L302.838 22.0391ZM305.255 23.2402L304.74 24.0977C305.299 24.4332 305.703 24.8343 305.98 25.2948L306.837 24.7783L307.693 24.2618C307.229 23.4919 306.577 22.8676 305.769 22.3827L305.255 23.2402ZM306.837 24.7783L305.984 25.3009C306.23 25.702 306.393 26.29 306.393 27.1367H307.393H308.393C308.393 26.0498 308.186 25.0655 307.689 24.2558L306.837 24.7783Z" fill="#AF4682" mask="url(#path-3-outside-1_0_187)"/>
</svg>
