<svg width="288" height="40" viewBox="0 0 288 40" fill="none" xmlns="http://www.w3.org/2000/svg">
<rect x="0.5" y="0.5" width="287" height="39" fill="#AF4682" stroke="#AF4682"/>
<mask id="path-2-outside-1_0_192" maskUnits="userSpaceOnUse" x="108" y="8" width="74" height="26" fill="black">
<rect fill="white" x="108" y="8" width="74" height="26"/>
<path d="M115.936 10.584C117.879 10.584 119.48 10.8184 120.74 11.2871C122.01 11.7559 122.952 12.4639 123.567 13.4111C124.183 14.3584 124.49 15.5547 124.49 17C124.49 17.9766 124.305 18.8311 123.934 19.5635C123.562 20.2959 123.074 20.916 122.469 21.4238C121.863 21.9316 121.209 22.3467 120.506 22.6689L126.805 32H121.766L116.653 23.7822H114.236V32H109.695V10.584H115.936ZM115.613 14.3047H114.236V20.0908H115.701C117.205 20.0908 118.279 19.8418 118.924 19.3438C119.578 18.8359 119.905 18.0938 119.905 17.1172C119.905 16.1016 119.554 15.3789 118.851 14.9492C118.157 14.5195 117.078 14.3047 115.613 14.3047ZM134.701 15.3154C136.215 15.3154 137.519 15.6084 138.612 16.1943C139.706 16.7705 140.551 17.6104 141.147 18.7139C141.742 19.8174 142.04 21.165 142.04 22.7568V24.9248H131.479C131.528 26.1846 131.904 27.1758 132.607 27.8984C133.32 28.6113 134.306 28.9678 135.566 28.9678C136.611 28.9678 137.568 28.8604 138.437 28.6455C139.306 28.4307 140.199 28.1084 141.117 27.6787V31.1357C140.307 31.5361 139.457 31.8291 138.569 32.0146C137.69 32.2002 136.62 32.293 135.361 32.293C133.72 32.293 132.265 31.9902 130.995 31.3848C129.736 30.7793 128.744 29.8564 128.022 28.6162C127.309 27.376 126.952 25.8135 126.952 23.9287C126.952 22.0146 127.275 20.4229 127.919 19.1533C128.573 17.874 129.482 16.917 130.644 16.2822C131.806 15.6377 133.158 15.3154 134.701 15.3154ZM134.731 18.4941C133.862 18.4941 133.139 18.7725 132.563 19.3291C131.996 19.8857 131.669 20.7598 131.581 21.9512H137.851C137.841 21.2871 137.719 20.6963 137.485 20.1787C137.26 19.6611 136.918 19.251 136.459 18.9482C136.01 18.6455 135.434 18.4941 134.731 18.4941ZM151.226 15.3154C152.74 15.3154 154.043 15.6084 155.137 16.1943C156.231 16.7705 157.076 17.6104 157.671 18.7139C158.267 19.8174 158.565 21.165 158.565 22.7568V24.9248H148.003C148.052 26.1846 148.428 27.1758 149.131 27.8984C149.844 28.6113 150.83 28.9678 152.09 28.9678C153.135 28.9678 154.092 28.8604 154.961 28.6455C155.83 28.4307 156.724 28.1084 157.642 27.6787V31.1357C156.831 31.5361 155.982 31.8291 155.093 32.0146C154.214 32.2002 153.145 32.293 151.885 32.293C150.245 32.293 148.789 31.9902 147.52 31.3848C146.26 30.7793 145.269 29.8564 144.546 28.6162C143.833 27.376 143.477 25.8135 143.477 23.9287C143.477 22.0146 143.799 20.4229 144.444 19.1533C145.098 17.874 146.006 16.917 147.168 16.2822C148.33 15.6377 149.683 15.3154 151.226 15.3154ZM151.255 18.4941C150.386 18.4941 149.663 18.7725 149.087 19.3291C148.521 19.8857 148.194 20.7598 148.106 21.9512H154.375C154.366 21.2871 154.244 20.6963 154.009 20.1787C153.785 19.6611 153.443 19.251 152.984 18.9482C152.535 18.6455 151.958 18.4941 151.255 18.4941ZM165.465 32H160.998V9.20703H165.465V32ZM180.393 27.1367C180.393 28.25 180.13 29.1924 179.602 29.9639C179.085 30.7256 178.308 31.3066 177.273 31.707C176.238 32.0977 174.949 32.293 173.406 32.293C172.263 32.293 171.282 32.2197 170.462 32.0732C169.651 31.9268 168.831 31.6826 168.001 31.3408V27.6494C168.889 28.0498 169.842 28.3818 170.857 28.6455C171.883 28.8994 172.781 29.0264 173.553 29.0264C174.422 29.0264 175.042 28.8994 175.413 28.6455C175.794 28.3818 175.984 28.04 175.984 27.6201C175.984 27.3467 175.906 27.1025 175.75 26.8877C175.603 26.6631 175.281 26.4141 174.783 26.1406C174.285 25.8574 173.504 25.4912 172.439 25.042C171.414 24.6123 170.569 24.1777 169.905 23.7383C169.251 23.2988 168.763 22.7812 168.44 22.1855C168.128 21.5801 167.971 20.8135 167.971 19.8857C167.971 18.3721 168.557 17.2344 169.729 16.4727C170.911 15.7012 172.488 15.3154 174.461 15.3154C175.476 15.3154 176.443 15.418 177.361 15.623C178.289 15.8281 179.241 16.1553 180.218 16.6045L178.87 19.8271C178.059 19.4756 177.293 19.1875 176.57 18.9629C175.857 18.7383 175.13 18.626 174.388 18.626C173.733 18.626 173.24 18.7139 172.908 18.8896C172.576 19.0654 172.41 19.334 172.41 19.6953C172.41 19.959 172.493 20.1934 172.659 20.3984C172.835 20.6035 173.167 20.833 173.655 21.0869C174.153 21.3311 174.881 21.6484 175.838 22.0391C176.765 22.4199 177.571 22.8203 178.255 23.2402C178.938 23.6504 179.466 24.1631 179.837 24.7783C180.208 25.3838 180.393 26.1699 180.393 27.1367Z"/>
</mask>
<path d="M115.936 10.584C117.879 10.584 119.48 10.8184 120.74 11.2871C122.01 11.7559 122.952 12.4639 123.567 13.4111C124.183 14.3584 124.49 15.5547 124.49 17C124.49 17.9766 124.305 18.8311 123.934 19.5635C123.562 20.2959 123.074 20.916 122.469 21.4238C121.863 21.9316 121.209 22.3467 120.506 22.6689L126.805 32H121.766L116.653 23.7822H114.236V32H109.695V10.584H115.936ZM115.613 14.3047H114.236V20.0908H115.701C117.205 20.0908 118.279 19.8418 118.924 19.3438C119.578 18.8359 119.905 18.0938 119.905 17.1172C119.905 16.1016 119.554 15.3789 118.851 14.9492C118.157 14.5195 117.078 14.3047 115.613 14.3047ZM134.701 15.3154C136.215 15.3154 137.519 15.6084 138.612 16.1943C139.706 16.7705 140.551 17.6104 141.147 18.7139C141.742 19.8174 142.04 21.165 142.04 22.7568V24.9248H131.479C131.528 26.1846 131.904 27.1758 132.607 27.8984C133.32 28.6113 134.306 28.9678 135.566 28.9678C136.611 28.9678 137.568 28.8604 138.437 28.6455C139.306 28.4307 140.199 28.1084 141.117 27.6787V31.1357C140.307 31.5361 139.457 31.8291 138.569 32.0146C137.69 32.2002 136.62 32.293 135.361 32.293C133.72 32.293 132.265 31.9902 130.995 31.3848C129.736 30.7793 128.744 29.8564 128.022 28.6162C127.309 27.376 126.952 25.8135 126.952 23.9287C126.952 22.0146 127.275 20.4229 127.919 19.1533C128.573 17.874 129.482 16.917 130.644 16.2822C131.806 15.6377 133.158 15.3154 134.701 15.3154ZM134.731 18.4941C133.862 18.4941 133.139 18.7725 132.563 19.3291C131.996 19.8857 131.669 20.7598 131.581 21.9512H137.851C137.841 21.2871 137.719 20.6963 137.485 20.1787C137.26 19.6611 136.918 19.251 136.459 18.9482C136.01 18.6455 135.434 18.4941 134.731 18.4941ZM151.226 15.3154C152.74 15.3154 154.043 15.6084 155.137 16.1943C156.231 16.7705 157.076 17.6104 157.671 18.7139C158.267 19.8174 158.565 21.165 158.565 22.7568V24.9248H148.003C148.052 26.1846 148.428 27.1758 149.131 27.8984C149.844 28.6113 150.83 28.9678 152.09 28.9678C153.135 28.9678 154.092 28.8604 154.961 28.6455C155.83 28.4307 156.724 28.1084 157.642 27.6787V31.1357C156.831 31.5361 155.982 31.8291 155.093 32.0146C154.214 32.2002 153.145 32.293 151.885 32.293C150.245 32.293 148.789 31.9902 147.52 31.3848C146.26 30.7793 145.269 29.8564 144.546 28.6162C143.833 27.376 143.477 25.8135 143.477 23.9287C143.477 22.0146 143.799 20.4229 144.444 19.1533C145.098 17.874 146.006 16.917 147.168 16.2822C148.33 15.6377 149.683 15.3154 151.226 15.3154ZM151.255 18.4941C150.386 18.4941 149.663 18.7725 149.087 19.3291C148.521 19.8857 148.194 20.7598 148.106 21.9512H154.375C154.366 21.2871 154.244 20.6963 154.009 20.1787C153.785 19.6611 153.443 19.251 152.984 18.9482C152.535 18.6455 151.958 18.4941 151.255 18.4941ZM165.465 32H160.998V9.20703H165.465V32ZM180.393 27.1367C180.393 28.25 180.13 29.1924 179.602 29.9639C179.085 30.7256 178.308 31.3066 177.273 31.707C176.238 32.0977 174.949 32.293 173.406 32.293C172.263 32.293 171.282 32.2197 170.462 32.0732C169.651 31.9268 168.831 31.6826 168.001 31.3408V27.6494C168.889 28.0498 169.842 28.3818 170.857 28.6455C171.883 28.8994 172.781 29.0264 173.553 29.0264C174.422 29.0264 175.042 28.8994 175.413 28.6455C175.794 28.3818 175.984 28.04 175.984 27.6201C175.984 27.3467 175.906 27.1025 175.75 26.8877C175.603 26.6631 175.281 26.4141 174.783 26.1406C174.285 25.8574 173.504 25.4912 172.439 25.042C171.414 24.6123 170.569 24.1777 169.905 23.7383C169.251 23.2988 168.763 22.7812 168.44 22.1855C168.128 21.5801 167.971 20.8135 167.971 19.8857C167.971 18.3721 168.557 17.2344 169.729 16.4727C170.911 15.7012 172.488 15.3154 174.461 15.3154C175.476 15.3154 176.443 15.418 177.361 15.623C178.289 15.8281 179.241 16.1553 180.218 16.6045L178.87 19.8271C178.059 19.4756 177.293 19.1875 176.57 18.9629C175.857 18.7383 175.13 18.626 174.388 18.626C173.733 18.626 173.24 18.7139 172.908 18.8896C172.576 19.0654 172.41 19.334 172.41 19.6953C172.41 19.959 172.493 20.1934 172.659 20.3984C172.835 20.6035 173.167 20.833 173.655 21.0869C174.153 21.3311 174.881 21.6484 175.838 22.0391C176.765 22.4199 177.571 22.8203 178.255 23.2402C178.938 23.6504 179.466 24.1631 179.837 24.7783C180.208 25.3838 180.393 26.1699 180.393 27.1367Z" fill="white"/>
<path d="M120.74 11.2871L120.391 12.2243L120.394 12.2252L120.74 11.2871ZM120.506 22.6689L120.089 21.7599L119.017 22.2512L119.677 23.2284L120.506 22.6689ZM126.805 32V33H128.686L127.634 31.4405L126.805 32ZM121.766 32L120.917 32.5282L121.21 33H121.766V32ZM116.653 23.7822L117.502 23.254L117.209 22.7822H116.653V23.7822ZM114.236 23.7822V22.7822H113.236V23.7822H114.236ZM114.236 32V33H115.236V32H114.236ZM109.695 32H108.695V33H109.695V32ZM109.695 10.584V9.58398H108.695V10.584H109.695ZM114.236 14.3047V13.3047H113.236V14.3047H114.236ZM114.236 20.0908H113.236V21.0908H114.236V20.0908ZM118.924 19.3438L119.535 20.135L119.537 20.1337L118.924 19.3438ZM118.851 14.9492L118.324 15.7992L118.329 15.8025L118.851 14.9492ZM115.936 10.584V11.584C117.808 11.584 119.281 11.8112 120.392 12.2243L120.74 11.2871L121.089 10.3499C119.68 9.82554 117.949 9.58398 115.936 9.58398V10.584ZM120.74 11.2871L120.394 12.2252C121.502 12.6345 122.253 13.223 122.729 13.9558L123.567 13.4111L124.406 12.8664C123.652 11.7048 122.517 10.8772 121.087 10.349L120.74 11.2871ZM123.567 13.4111L122.729 13.9558C123.213 14.7012 123.49 15.6944 123.49 17H124.49H125.49C125.49 15.4149 125.152 14.0156 124.406 12.8664L123.567 13.4111ZM124.49 17H123.49C123.49 17.8491 123.329 18.5433 123.042 19.1115L123.934 19.5635L124.826 20.0154C125.28 19.1188 125.49 18.1041 125.49 17H124.49ZM123.934 19.5635L123.042 19.1115C122.729 19.7282 122.324 20.24 121.826 20.6576L122.469 21.4238L123.111 22.19C123.824 21.592 124.396 20.8636 124.826 20.0154L123.934 19.5635ZM122.469 21.4238L121.826 20.6576C121.288 21.1092 120.709 21.4757 120.089 21.7599L120.506 22.6689L120.923 23.578C121.709 23.2176 122.439 22.7541 123.111 22.19L122.469 21.4238ZM120.506 22.6689L119.677 23.2284L125.976 32.5595L126.805 32L127.634 31.4405L121.335 22.1094L120.506 22.6689ZM126.805 32V31H121.766V32V33H126.805V32ZM121.766 32L122.615 31.4718L117.502 23.254L116.653 23.7822L115.804 24.3105L120.917 32.5282L121.766 32ZM116.653 23.7822V22.7822H114.236V23.7822V24.7822H116.653V23.7822ZM114.236 23.7822H113.236V32H114.236H115.236V23.7822H114.236ZM114.236 32V31H109.695V32V33H114.236V32ZM109.695 32H110.695V10.584H109.695H108.695V32H109.695ZM109.695 10.584V11.584H115.936V10.584V9.58398H109.695V10.584ZM115.613 14.3047V13.3047H114.236V14.3047V15.3047H115.613V14.3047ZM114.236 14.3047H113.236V20.0908H114.236H115.236V14.3047H114.236ZM114.236 20.0908V21.0908H115.701V20.0908V19.0908H114.236V20.0908ZM115.701 20.0908V21.0908C117.263 21.0908 118.62 20.8425 119.535 20.135L118.924 19.3438L118.312 18.5525C117.939 18.8411 117.147 19.0908 115.701 19.0908V20.0908ZM118.924 19.3438L119.537 20.1337C120.481 19.4014 120.905 18.3405 120.905 17.1172H119.905H118.905C118.905 17.847 118.676 18.2705 118.311 18.5538L118.924 19.3438ZM119.905 17.1172H120.905C120.905 15.847 120.445 14.7513 119.372 14.0959L118.851 14.9492L118.329 15.8025C118.663 16.0065 118.905 16.3561 118.905 17.1172H119.905ZM118.851 14.9492L119.377 14.0992C118.444 13.5209 117.136 13.3047 115.613 13.3047V14.3047V15.3047C117.02 15.3047 117.87 15.5182 118.324 15.7992L118.851 14.9492ZM138.612 16.1943L138.14 17.0758L138.146 17.0791L138.612 16.1943ZM142.04 24.9248V25.9248H143.04V24.9248H142.04ZM131.479 24.9248V23.9248H130.439L130.479 24.9635L131.479 24.9248ZM132.607 27.8984L131.89 28.5959L131.9 28.6055L132.607 27.8984ZM141.117 27.6787H142.117V26.1065L140.693 26.773L141.117 27.6787ZM141.117 31.1357L141.56 32.0323L142.117 31.7571V31.1357H141.117ZM138.569 32.0146L138.364 31.0358L138.362 31.0362L138.569 32.0146ZM130.995 31.3848L130.562 32.2861L130.565 32.2874L130.995 31.3848ZM128.022 28.6162L127.155 29.1146L127.158 29.1197L128.022 28.6162ZM127.919 19.1533L127.029 18.698L127.027 18.7006L127.919 19.1533ZM130.644 16.2822L131.123 17.1599L131.129 17.1567L130.644 16.2822ZM132.563 19.3291L131.868 18.6099L131.862 18.6159L132.563 19.3291ZM131.581 21.9512L130.584 21.8776L130.505 22.9512H131.581V21.9512ZM137.851 21.9512V22.9512H138.866L138.851 21.9365L137.851 21.9512ZM137.485 20.1787L136.567 20.5768L136.57 20.584L136.574 20.5912L137.485 20.1787ZM136.459 18.9482L135.9 19.7775L135.909 19.783L136.459 18.9482ZM134.701 15.3154V16.3154C136.086 16.3154 137.22 16.583 138.14 17.0758L138.612 16.1943L139.085 15.3129C137.817 14.6338 136.344 14.3154 134.701 14.3154V15.3154ZM138.612 16.1943L138.146 17.0791C139.062 17.5614 139.764 18.2573 140.267 19.1889L141.147 18.7139L142.027 18.2388C141.338 16.9634 140.351 15.9797 139.079 15.3096L138.612 16.1943ZM141.147 18.7139L140.267 19.1889C140.765 20.1123 141.04 21.2872 141.04 22.7568H142.04H143.04C143.04 21.0429 142.72 19.5224 142.027 18.2388L141.147 18.7139ZM142.04 22.7568H141.04V24.9248H142.04H143.04V22.7568H142.04ZM142.04 24.9248V23.9248H131.479V24.9248V25.9248H142.04V24.9248ZM131.479 24.9248L130.479 24.9635C130.535 26.4059 130.974 27.6548 131.89 28.5958L132.607 27.8984L133.323 27.2011C132.833 26.6968 132.52 25.9632 132.478 24.8861L131.479 24.9248ZM132.607 27.8984L131.9 28.6055C132.844 29.5502 134.111 29.9678 135.566 29.9678V28.9678V27.9678C134.501 27.9678 133.795 27.6724 133.314 27.1913L132.607 27.8984ZM135.566 28.9678V29.9678C136.678 29.9678 137.717 29.8535 138.677 29.6163L138.437 28.6455L138.197 27.6747C137.418 27.8673 136.543 27.9678 135.566 27.9678V28.9678ZM138.437 28.6455L138.677 29.6163C139.617 29.3839 140.572 29.0382 141.541 28.5844L141.117 27.6787L140.693 26.773C139.827 27.1786 138.995 27.4774 138.197 27.6747L138.437 28.6455ZM141.117 27.6787H140.117V31.1357H141.117H142.117V27.6787H141.117ZM141.117 31.1357L140.674 30.2392C139.94 30.602 139.171 30.8674 138.364 31.0358L138.569 32.0146L138.773 32.9935C139.744 32.7908 140.674 32.4703 141.56 32.0323L141.117 31.1357ZM138.569 32.0146L138.362 31.0362C137.572 31.203 136.576 31.293 135.361 31.293V32.293V33.293C136.664 33.293 137.807 33.1974 138.775 32.9931L138.569 32.0146ZM135.361 32.293V31.293C133.844 31.293 132.54 31.0137 131.426 30.4822L130.995 31.3848L130.565 32.2874C131.989 32.9668 133.596 33.293 135.361 33.293V32.293ZM130.995 31.3848L131.428 30.4835C130.354 29.967 129.511 29.1853 128.886 28.1128L128.022 28.6162L127.158 29.1197C127.978 30.5276 129.117 31.5916 130.562 32.2861L130.995 31.3848ZM128.022 28.6162L128.889 28.1179C128.286 27.07 127.952 25.6925 127.952 23.9287H126.952H125.952C125.952 25.9345 126.331 27.682 127.155 29.1146L128.022 28.6162ZM126.952 23.9287H127.952C127.952 22.1203 128.258 20.6955 128.811 19.606L127.919 19.1533L127.027 18.7006C126.292 20.1502 125.952 21.909 125.952 23.9287H126.952ZM127.919 19.1533L128.809 19.6087C129.38 18.4923 130.152 17.6901 131.123 17.1598L130.644 16.2822L130.164 15.4046C128.811 16.1439 127.766 17.2558 127.029 18.698L127.919 19.1533ZM130.644 16.2822L131.129 17.1567C132.12 16.6069 133.301 16.3154 134.701 16.3154V15.3154V14.3154C133.016 14.3154 131.492 14.6685 130.159 15.4077L130.644 16.2822ZM134.731 18.4941V17.4941C133.626 17.4941 132.647 17.857 131.868 18.6099L132.563 19.3291L133.258 20.0483C133.631 19.6879 134.097 19.4941 134.731 19.4941V18.4941ZM132.563 19.3291L131.862 18.6159C131.053 19.4106 130.681 20.5623 130.584 21.8776L131.581 21.9512L132.579 22.0247C132.657 20.9572 132.94 20.3609 133.264 20.0423L132.563 19.3291ZM131.581 21.9512V22.9512H137.851V21.9512V20.9512H131.581V21.9512ZM137.851 21.9512L138.851 21.9365C138.839 21.158 138.695 20.4282 138.396 19.7662L137.485 20.1787L136.574 20.5912C136.743 20.9644 136.843 21.4162 136.851 21.9659L137.851 21.9512ZM137.485 20.1787L138.402 19.7806C138.102 19.0899 137.635 18.526 137.01 18.1135L136.459 18.9482L135.909 19.783C136.201 19.9759 136.418 20.2324 136.567 20.5768L137.485 20.1787ZM136.459 18.9482L137.018 18.119C136.361 17.6761 135.574 17.4941 134.731 17.4941V18.4941V19.4941C135.293 19.4941 135.659 19.6149 135.9 19.7775L136.459 18.9482ZM155.137 16.1943L154.665 17.0758L154.671 17.0791L155.137 16.1943ZM158.565 24.9248V25.9248H159.565V24.9248H158.565ZM148.003 24.9248V23.9248H146.964L147.004 24.9635L148.003 24.9248ZM149.131 27.8984L148.414 28.5959L148.424 28.6055L149.131 27.8984ZM157.642 27.6787H158.642V26.1065L157.218 26.773L157.642 27.6787ZM157.642 31.1357L158.085 32.0323L158.642 31.7571V31.1357H157.642ZM155.093 32.0146L154.889 31.0358L154.887 31.0362L155.093 32.0146ZM147.52 31.3848L147.087 32.2861L147.089 32.2874L147.52 31.3848ZM144.546 28.6162L143.679 29.1146L143.682 29.1197L144.546 28.6162ZM144.444 19.1533L143.553 18.698L143.552 18.7006L144.444 19.1533ZM147.168 16.2822L147.648 17.1599L147.653 17.1567L147.168 16.2822ZM149.087 19.3291L148.392 18.6099L148.386 18.6159L149.087 19.3291ZM148.106 21.9512L147.109 21.8776L147.029 22.9512H148.106V21.9512ZM154.375 21.9512V22.9512H155.39L155.375 21.9365L154.375 21.9512ZM154.009 20.1787L153.092 20.5768L153.095 20.584L153.098 20.5912L154.009 20.1787ZM152.984 18.9482L152.425 19.7775L152.433 19.783L152.984 18.9482ZM151.226 15.3154V16.3154C152.611 16.3154 153.745 16.583 154.665 17.0758L155.137 16.1943L155.609 15.3129C154.342 14.6338 152.869 14.3154 151.226 14.3154V15.3154ZM155.137 16.1943L154.671 17.0791C155.587 17.5614 156.288 18.2573 156.791 19.1889L157.671 18.7139L158.551 18.2388C157.863 16.9634 156.875 15.9797 155.603 15.3096L155.137 16.1943ZM157.671 18.7139L156.791 19.1889C157.29 20.1123 157.565 21.2872 157.565 22.7568H158.565H159.565C159.565 21.0429 159.244 19.5224 158.551 18.2388L157.671 18.7139ZM158.565 22.7568H157.565V24.9248H158.565H159.565V22.7568H158.565ZM158.565 24.9248V23.9248H148.003V24.9248V25.9248H158.565V24.9248ZM148.003 24.9248L147.004 24.9635C147.06 26.4059 147.499 27.6548 148.415 28.5958L149.131 27.8984L149.848 27.2011C149.357 26.6968 149.044 25.9632 149.003 24.8861L148.003 24.9248ZM149.131 27.8984L148.424 28.6055C149.369 29.5502 150.635 29.9678 152.09 29.9678V28.9678V27.9678C151.026 27.9678 150.319 27.6724 149.838 27.1913L149.131 27.8984ZM152.09 28.9678V29.9678C153.203 29.9678 154.242 29.8535 155.201 29.6163L154.961 28.6455L154.721 27.6747C153.943 27.8673 153.067 27.9678 152.09 27.9678V28.9678ZM154.961 28.6455L155.201 29.6163C156.141 29.3839 157.097 29.0382 158.066 28.5844L157.642 27.6787L157.218 26.773C156.352 27.1786 155.52 27.4774 154.721 27.6747L154.961 28.6455ZM157.642 27.6787H156.642V31.1357H157.642H158.642V27.6787H157.642ZM157.642 31.1357L157.199 30.2392C156.465 30.602 155.695 30.8674 154.889 31.0358L155.093 32.0146L155.298 32.9935C156.269 32.7908 157.198 32.4703 158.085 32.0323L157.642 31.1357ZM155.093 32.0146L154.887 31.0362C154.097 31.203 153.101 31.293 151.885 31.293V32.293V33.293C153.189 33.293 154.332 33.1974 155.3 32.9931L155.093 32.0146ZM151.885 32.293V31.293C150.369 31.293 149.065 31.0137 147.95 30.4822L147.52 31.3848L147.089 32.2874C148.514 32.9668 150.12 33.293 151.885 33.293V32.293ZM147.52 31.3848L147.953 30.4835C146.879 29.967 146.035 29.1853 145.41 28.1128L144.546 28.6162L143.682 29.1197C144.503 30.5276 145.642 31.5916 147.087 32.2861L147.52 31.3848ZM144.546 28.6162L145.413 28.1179C144.811 27.07 144.477 25.6925 144.477 23.9287H143.477H142.477C142.477 25.9345 142.856 27.682 143.679 29.1146L144.546 28.6162ZM143.477 23.9287H144.477C144.477 22.1203 144.782 20.6955 145.335 19.606L144.444 19.1533L143.552 18.7006C142.816 20.1502 142.477 21.909 142.477 23.9287H143.477ZM144.444 19.1533L145.334 19.6087C145.905 18.4923 146.677 17.6901 147.648 17.1598L147.168 16.2822L146.689 15.4046C145.335 16.1439 144.291 17.2558 143.553 18.698L144.444 19.1533ZM147.168 16.2822L147.653 17.1567C148.645 16.6069 149.825 16.3154 151.226 16.3154V15.3154V14.3154C149.541 14.3154 148.016 14.6685 146.683 15.4077L147.168 16.2822ZM151.255 18.4941V17.4941C150.151 17.4941 149.172 17.857 148.392 18.6099L149.087 19.3291L149.782 20.0483C150.155 19.6879 150.621 19.4941 151.255 19.4941V18.4941ZM149.087 19.3291L148.386 18.6159C147.578 19.4106 147.206 20.5623 147.109 21.8776L148.106 21.9512L149.103 22.0247C149.182 20.9572 149.464 20.3609 149.788 20.0423L149.087 19.3291ZM148.106 21.9512V22.9512H154.375V21.9512V20.9512H148.106V21.9512ZM154.375 21.9512L155.375 21.9365C155.364 21.158 155.22 20.4282 154.92 19.7662L154.009 20.1787L153.098 20.5912C153.267 20.9644 153.367 21.4162 153.375 21.9659L154.375 21.9512ZM154.009 20.1787L154.927 19.7806C154.627 19.0899 154.16 18.526 153.534 18.1135L152.984 18.9482L152.433 19.783C152.726 19.9759 152.942 20.2324 153.092 20.5768L154.009 20.1787ZM152.984 18.9482L153.543 18.119C152.885 17.6761 152.099 17.4941 151.255 17.4941V18.4941V19.4941C151.818 19.4941 152.184 19.6149 152.425 19.7775L152.984 18.9482ZM165.465 32V33H166.465V32H165.465ZM160.998 32H159.998V33H160.998V32ZM160.998 9.20703V8.20703H159.998V9.20703H160.998ZM165.465 9.20703H166.465V8.20703H165.465V9.20703ZM165.465 32V31H160.998V32V33H165.465V32ZM160.998 32H161.998V9.20703H160.998H159.998V32H160.998ZM160.998 9.20703V10.207H165.465V9.20703V8.20703H160.998V9.20703ZM165.465 9.20703H164.465V32H165.465H166.465V9.20703H165.465ZM179.602 29.9639L178.777 29.3996L178.775 29.4018L179.602 29.9639ZM177.273 31.707L177.626 32.6427L177.634 32.6397L177.273 31.707ZM170.462 32.0732L170.284 33.0573L170.286 33.0577L170.462 32.0732ZM168.001 31.3408H167.001V32.0105L167.62 32.2655L168.001 31.3408ZM168.001 27.6494L168.412 26.7377L167.001 26.1021V27.6494H168.001ZM170.857 28.6455L170.606 29.6135L170.617 29.6162L170.857 28.6455ZM175.413 28.6455L175.978 29.4708L175.982 29.4677L175.413 28.6455ZM175.75 26.8877L174.912 27.434L174.926 27.4553L174.941 27.4759L175.75 26.8877ZM174.783 26.1406L174.289 27.0099L174.295 27.0136L174.302 27.0172L174.783 26.1406ZM172.439 25.042L172.828 24.1207L172.826 24.1197L172.439 25.042ZM169.905 23.7383L169.348 24.5684L169.353 24.5722L169.905 23.7383ZM168.44 22.1855L167.552 22.6442L167.556 22.6528L167.561 22.6614L168.44 22.1855ZM169.729 16.4727L170.274 17.3111L170.276 17.31L169.729 16.4727ZM177.361 15.623L177.143 16.599L177.145 16.5995L177.361 15.623ZM180.218 16.6045L181.14 16.9903L181.513 16.0995L180.635 15.696L180.218 16.6045ZM178.87 19.8271L178.472 20.7446L179.402 21.1478L179.793 20.213L178.87 19.8271ZM176.57 18.9629L176.27 19.9167L176.273 19.9178L176.57 18.9629ZM172.659 20.3984L171.882 21.0276L171.891 21.0386L171.9 21.0492L172.659 20.3984ZM173.655 21.0869L173.194 21.9741L173.204 21.9796L173.215 21.9848L173.655 21.0869ZM175.838 22.0391L176.217 21.114L176.216 21.1132L175.838 22.0391ZM178.255 23.2402L177.731 24.0924L177.74 24.0977L178.255 23.2402ZM179.837 24.7783L178.98 25.2948L178.984 25.3009L179.837 24.7783ZM180.393 27.1367H179.393C179.393 28.0879 179.17 28.824 178.777 29.3996L179.602 29.9639L180.428 30.5282C181.089 29.5607 181.393 28.4121 181.393 27.1367H180.393ZM179.602 29.9639L178.775 29.4018C178.394 29.9635 177.798 30.432 176.912 30.7744L177.273 31.707L177.634 32.6397C178.819 32.1813 179.776 31.4876 180.429 30.5259L179.602 29.9639ZM177.273 31.707L176.92 30.7714C176.033 31.1063 174.872 31.293 173.406 31.293V32.293V33.293C175.026 33.293 176.443 33.089 177.626 32.6426L177.273 31.707ZM173.406 32.293V31.293C172.302 31.293 171.383 31.2219 170.638 31.0888L170.462 32.0732L170.286 33.0577C171.181 33.2175 172.225 33.293 173.406 33.293V32.293ZM170.462 32.0732L170.64 31.0892C169.904 30.9563 169.152 30.7334 168.382 30.4161L168.001 31.3408L167.62 32.2655C168.51 32.6318 169.398 32.8972 170.284 33.0573L170.462 32.0732ZM168.001 31.3408H169.001V27.6494H168.001H167.001V31.3408H168.001ZM168.001 27.6494L167.59 28.5611C168.534 28.9864 169.54 29.3366 170.606 29.6134L170.857 28.6455L171.109 27.6776C170.143 27.427 169.245 27.1132 168.412 26.7377L168.001 27.6494ZM170.857 28.6455L170.617 29.6162C171.694 29.883 172.677 30.0264 173.553 30.0264V29.0264V28.0264C172.886 28.0264 172.071 27.9159 171.098 27.6748L170.857 28.6455ZM173.553 29.0264V30.0264C174.465 30.0264 175.345 29.9035 175.978 29.4708L175.413 28.6455L174.848 27.8202C174.738 27.8954 174.379 28.0264 173.553 28.0264V29.0264ZM175.413 28.6455L175.982 29.4677C176.6 29.0398 176.984 28.4059 176.984 27.6201H175.984H174.984C174.984 27.6726 174.974 27.6935 174.968 27.7047C174.96 27.7195 174.931 27.7627 174.844 27.8233L175.413 28.6455ZM175.984 27.6201H176.984C176.984 27.142 176.843 26.6906 176.559 26.2995L175.75 26.8877L174.941 27.4759C174.969 27.5145 174.984 27.5514 174.984 27.6201H175.984ZM175.75 26.8877L176.587 26.3414C176.296 25.8945 175.779 25.5468 175.264 25.264L174.783 26.1406L174.302 27.0172C174.522 27.1379 174.679 27.2407 174.787 27.3238C174.9 27.4116 174.923 27.4508 174.912 27.434L175.75 26.8877ZM174.783 26.1406L175.277 25.2713C174.726 24.9578 173.9 24.5731 172.828 24.1207L172.439 25.042L172.05 25.9633C173.107 26.4093 173.844 26.757 174.289 27.0099L174.783 26.1406ZM172.439 25.042L172.826 24.1197C171.837 23.7055 171.053 23.2987 170.457 22.9043L169.905 23.7383L169.353 24.5722C170.085 25.0568 170.99 25.5191 172.053 25.9643L172.439 25.042ZM169.905 23.7383L170.463 22.9081C169.921 22.5442 169.553 22.1413 169.32 21.7097L168.44 22.1855L167.561 22.6614C167.972 23.4212 168.581 24.0535 169.348 24.5684L169.905 23.7383ZM168.44 22.1855L169.329 21.7269C169.111 21.3051 168.971 20.7088 168.971 19.8857H167.971H166.971C166.971 20.9182 167.144 21.8551 167.552 22.6442L168.44 22.1855ZM167.971 19.8857H168.971C168.971 18.6771 169.413 17.8708 170.274 17.3111L169.729 16.4727L169.184 15.6342C167.702 16.5979 166.971 18.067 166.971 19.8857H167.971ZM169.729 16.4727L170.276 17.31C171.242 16.679 172.608 16.3154 174.461 16.3154V15.3154V14.3154C172.368 14.3154 170.579 14.7233 169.183 15.6353L169.729 16.4727ZM174.461 15.3154V16.3154C175.409 16.3154 176.302 16.4111 177.143 16.599L177.361 15.623L177.579 14.6471C176.584 14.4248 175.544 14.3154 174.461 14.3154V15.3154ZM177.361 15.623L177.145 16.5995C177.995 16.7873 178.88 17.0897 179.8 17.513L180.218 16.6045L180.635 15.696C179.602 15.2208 178.583 14.8689 177.577 14.6466L177.361 15.623ZM180.218 16.6045L179.295 16.2187L177.947 19.4413L178.87 19.8271L179.793 20.213L181.14 16.9903L180.218 16.6045ZM178.87 19.8271L179.268 18.9097C178.43 18.5462 177.629 18.2448 176.867 18.008L176.57 18.9629L176.273 19.9178C176.956 20.1302 177.689 20.405 178.472 20.7446L178.87 19.8271ZM176.57 18.9629L176.871 18.0091C176.061 17.7541 175.232 17.626 174.387 17.626V18.626V19.626C175.027 19.626 175.653 19.7225 176.27 19.9167L176.57 18.9629ZM174.387 18.626V17.626C173.675 17.626 172.987 17.7165 172.44 18.0059L172.908 18.8896L173.376 19.7734C173.493 19.7112 173.792 19.626 174.387 19.626V18.626ZM172.908 18.8896L172.44 18.0059C172.147 18.1611 171.877 18.3851 171.684 18.6971C171.49 19.0112 171.41 19.3563 171.41 19.6953H172.41H173.41C173.41 19.6817 173.411 19.6836 173.408 19.6966C173.404 19.7104 173.397 19.7292 173.385 19.7487C173.373 19.7681 173.361 19.7801 173.356 19.7851C173.351 19.7894 173.355 19.7843 173.376 19.7734L172.908 18.8896ZM172.41 19.6953H171.41C171.41 20.1882 171.572 20.6447 171.882 21.0276L172.659 20.3984L173.436 19.7692C173.42 19.7496 173.416 19.7387 173.415 19.735C173.414 19.7314 173.41 19.7203 173.41 19.6953H172.41ZM172.659 20.3984L171.9 21.0492C172.207 21.4079 172.685 21.7096 173.194 21.9741L173.655 21.0869L174.116 20.1997C173.649 19.9564 173.462 19.7991 173.418 19.7476L172.659 20.3984ZM173.655 21.0869L173.215 21.9848C173.744 22.2441 174.496 22.5717 175.46 22.9649L175.838 22.0391L176.216 21.1132C175.265 20.7252 174.562 20.418 174.095 20.189L173.655 21.0869ZM175.838 22.0391L175.458 22.9641C176.348 23.3294 177.103 23.7065 177.731 24.0923L178.255 23.2402L178.778 22.3882C178.039 21.9341 177.183 21.5105 176.217 21.114L175.838 22.0391ZM178.255 23.2402L177.74 24.0977C178.299 24.4332 178.703 24.8343 178.98 25.2948L179.837 24.7783L180.693 24.2618C180.229 23.4919 179.577 22.8676 178.769 22.3827L178.255 23.2402ZM179.837 24.7783L178.984 25.3009C179.23 25.702 179.393 26.29 179.393 27.1367H180.393H181.393C181.393 26.0498 181.186 25.0655 180.689 24.2558L179.837 24.7783Z" fill="#AF4682" mask="url(#path-2-outside-1_0_192)"/>
</svg>
