<svg width="559" height="165" viewBox="0 0 559 165" fill="none" xmlns="http://www.w3.org/2000/svg">
<rect x="0.5" y="20.5" width="558" height="144" stroke="#AF4682"/>
<rect x="127" width="288" height="40" fill="#AF4682"/>
<path d="M238.337 26.0527C238.337 27.3223 238.029 28.4258 237.414 29.3633C236.799 30.3008 235.9 31.0234 234.719 31.5312C233.547 32.0391 232.121 32.293 230.441 32.293C229.699 32.293 228.972 32.2441 228.259 32.1465C227.556 32.0488 226.877 31.9072 226.223 31.7217C225.578 31.5264 224.963 31.2871 224.377 31.0039V26.7852C225.393 27.2344 226.447 27.6396 227.541 28.001C228.635 28.3623 229.719 28.543 230.793 28.543C231.535 28.543 232.131 28.4453 232.58 28.25C233.039 28.0547 233.371 27.7861 233.576 27.4443C233.781 27.1025 233.884 26.7119 233.884 26.2725C233.884 25.7354 233.703 25.2764 233.342 24.8955C232.98 24.5146 232.482 24.1582 231.848 23.8262C231.223 23.4941 230.515 23.1377 229.724 22.7568C229.226 22.5225 228.684 22.2393 228.098 21.9072C227.512 21.5654 226.955 21.1504 226.428 20.6621C225.9 20.1738 225.466 19.583 225.124 18.8896C224.792 18.1865 224.626 17.3467 224.626 16.3701C224.626 15.0908 224.919 13.9971 225.505 13.0889C226.091 12.1807 226.926 11.4873 228.01 11.0088C229.104 10.5205 230.393 10.2764 231.877 10.2764C232.99 10.2764 234.05 10.4082 235.056 10.6719C236.071 10.9258 237.131 11.2969 238.234 11.7852L236.77 15.3154C235.783 14.915 234.899 14.6074 234.118 14.3926C233.337 14.168 232.541 14.0557 231.73 14.0557C231.164 14.0557 230.681 14.1484 230.28 14.334C229.88 14.5098 229.577 14.7637 229.372 15.0957C229.167 15.418 229.064 15.7939 229.064 16.2236C229.064 16.7314 229.211 17.1611 229.504 17.5127C229.807 17.8545 230.256 18.1865 230.852 18.5088C231.457 18.8311 232.209 19.207 233.107 19.6367C234.201 20.1543 235.134 20.6963 235.905 21.2627C236.687 21.8193 237.287 22.4785 237.707 23.2402C238.127 23.9922 238.337 24.9297 238.337 26.0527ZM247.567 28.7334C248.055 28.7334 248.529 28.6846 248.988 28.5869C249.456 28.4893 249.92 28.3672 250.379 28.2207V31.5459C249.901 31.7607 249.305 31.9365 248.592 32.0732C247.889 32.2197 247.117 32.293 246.278 32.293C245.301 32.293 244.422 32.1367 243.641 31.8242C242.869 31.502 242.259 30.9502 241.81 30.1689C241.37 29.3779 241.151 28.2793 241.151 26.873V18.9775H239.012V17.0879L241.473 15.5938L242.762 12.1367H245.618V15.623H250.203V18.9775H245.618V26.873C245.618 27.498 245.794 27.9668 246.146 28.2793C246.507 28.582 246.981 28.7334 247.567 28.7334ZM267.387 23.7822C267.387 25.1494 267.202 26.3604 266.83 27.415C266.469 28.4697 265.937 29.3633 265.234 30.0957C264.54 30.8184 263.701 31.3652 262.714 31.7363C261.738 32.1074 260.634 32.293 259.404 32.293C258.251 32.293 257.192 32.1074 256.225 31.7363C255.268 31.3652 254.433 30.8184 253.72 30.0957C253.017 29.3633 252.47 28.4697 252.079 27.415C251.699 26.3604 251.508 25.1494 251.508 23.7822C251.508 21.9658 251.83 20.4277 252.475 19.168C253.12 17.9082 254.038 16.9512 255.229 16.2969C256.42 15.6426 257.841 15.3154 259.492 15.3154C261.025 15.3154 262.382 15.6426 263.564 16.2969C264.755 16.9512 265.688 17.9082 266.362 19.168C267.045 20.4277 267.387 21.9658 267.387 23.7822ZM256.064 23.7822C256.064 24.8564 256.181 25.7598 256.415 26.4922C256.65 27.2246 257.016 27.7764 257.514 28.1475C258.012 28.5186 258.662 28.7041 259.462 28.7041C260.253 28.7041 260.893 28.5186 261.381 28.1475C261.879 27.7764 262.241 27.2246 262.465 26.4922C262.7 25.7598 262.817 24.8564 262.817 23.7822C262.817 22.6982 262.7 21.7998 262.465 21.0869C262.241 20.3643 261.879 19.8223 261.381 19.4609C260.883 19.0996 260.234 18.9189 259.433 18.9189C258.251 18.9189 257.392 19.3242 256.855 20.1348C256.328 20.9453 256.064 22.1611 256.064 23.7822ZM279.019 15.3154C279.244 15.3154 279.503 15.3301 279.796 15.3594C280.098 15.3789 280.342 15.4082 280.528 15.4473L280.191 19.6367C280.045 19.5879 279.835 19.5537 279.561 19.5342C279.297 19.5049 279.068 19.4902 278.873 19.4902C278.296 19.4902 277.735 19.5635 277.188 19.71C276.651 19.8564 276.168 20.0957 275.738 20.4277C275.308 20.75 274.966 21.1797 274.713 21.7168C274.468 22.2441 274.346 22.8936 274.346 23.665V32H269.879V15.623H273.262L273.921 18.377H274.141C274.463 17.8203 274.864 17.3125 275.342 16.8535C275.831 16.3848 276.382 16.0137 276.998 15.7402C277.623 15.457 278.296 15.3154 279.019 15.3154ZM286.769 15.623V32H282.302V15.623H286.769ZM284.543 9.20703C285.207 9.20703 285.778 9.36328 286.257 9.67578C286.735 9.97852 286.974 10.5498 286.974 11.3896C286.974 12.2197 286.735 12.7959 286.257 13.1182C285.778 13.4307 285.207 13.5869 284.543 13.5869C283.869 13.5869 283.293 13.4307 282.814 13.1182C282.346 12.7959 282.111 12.2197 282.111 11.3896C282.111 10.5498 282.346 9.97852 282.814 9.67578C283.293 9.36328 283.869 9.20703 284.543 9.20703ZM297.024 15.3154C298.538 15.3154 299.842 15.6084 300.936 16.1943C302.029 16.7705 302.874 17.6104 303.47 18.7139C304.065 19.8174 304.363 21.165 304.363 22.7568V24.9248H293.802C293.851 26.1846 294.227 27.1758 294.93 27.8984C295.643 28.6113 296.629 28.9678 297.889 28.9678C298.934 28.9678 299.891 28.8604 300.76 28.6455C301.629 28.4307 302.522 28.1084 303.44 27.6787V31.1357C302.63 31.5361 301.78 31.8291 300.892 32.0146C300.013 32.2002 298.943 32.293 297.684 32.293C296.043 32.293 294.588 31.9902 293.318 31.3848C292.059 30.7793 291.067 29.8564 290.345 28.6162C289.632 27.376 289.275 25.8135 289.275 23.9287C289.275 22.0146 289.598 20.4229 290.242 19.1533C290.896 17.874 291.805 16.917 292.967 16.2822C294.129 15.6377 295.481 15.3154 297.024 15.3154ZM297.054 18.4941C296.185 18.4941 295.462 18.7725 294.886 19.3291C294.319 19.8857 293.992 20.7598 293.904 21.9512H300.174C300.164 21.2871 300.042 20.6963 299.808 20.1787C299.583 19.6611 299.241 19.251 298.782 18.9482C298.333 18.6455 297.757 18.4941 297.054 18.4941ZM318.222 27.1367C318.222 28.25 317.958 29.1924 317.431 29.9639C316.913 30.7256 316.137 31.3066 315.102 31.707C314.067 32.0977 312.778 32.293 311.235 32.293C310.092 32.293 309.111 32.2197 308.29 32.0732C307.48 31.9268 306.659 31.6826 305.829 31.3408V27.6494C306.718 28.0498 307.67 28.3818 308.686 28.6455C309.711 28.8994 310.61 29.0264 311.381 29.0264C312.25 29.0264 312.87 28.8994 313.241 28.6455C313.622 28.3818 313.813 28.04 313.813 27.6201C313.813 27.3467 313.735 27.1025 313.578 26.8877C313.432 26.6631 313.11 26.4141 312.612 26.1406C312.113 25.8574 311.332 25.4912 310.268 25.042C309.242 24.6123 308.398 24.1777 307.734 23.7383C307.079 23.2988 306.591 22.7812 306.269 22.1855C305.956 21.5801 305.8 20.8135 305.8 19.8857C305.8 18.3721 306.386 17.2344 307.558 16.4727C308.739 15.7012 310.317 15.3154 312.289 15.3154C313.305 15.3154 314.272 15.418 315.19 15.623C316.117 15.8281 317.07 16.1553 318.046 16.6045L316.698 19.8271C315.888 19.4756 315.121 19.1875 314.399 18.9629C313.686 18.7383 312.958 18.626 312.216 18.626C311.562 18.626 311.069 18.7139 310.737 18.8896C310.404 19.0654 310.238 19.334 310.238 19.6953C310.238 19.959 310.321 20.1934 310.488 20.3984C310.663 20.6035 310.995 20.833 311.484 21.0869C311.982 21.3311 312.709 21.6484 313.666 22.0391C314.594 22.4199 315.4 22.8203 316.083 23.2402C316.767 23.6504 317.294 24.1631 317.665 24.7783C318.036 25.3838 318.222 26.1699 318.222 27.1367Z" fill="white"/>
</svg>
